<svg width="20" height="20" viewBox="0 0 20 20" fill="none" xmlns="http://www.w3.org/2000/svg">
<rect width="20" height="20" fill="#E5E5E5"/>
<g clip-path="url(#clip0)">
<rect width="1600" height="2924" transform="translate(-689 -2791)" fill="white"/>
<rect x="-896" y="-119" width="1600" height="252" fill="#2F303A"/>
<path d="M32 9.99997C32 16.0751 29.5376 21.5751 25.5564 25.5563C21.5751 29.5375 16.0751 32 10 32C3.92487 32 -1.57513 29.5375 -5.55635 25.5563C-9.53757 21.5751 -12 16.0751 -12 9.99997C-12 3.92484 -9.53757 -1.57516 -5.55635 -5.55638C-1.57513 -9.5376 3.92487 -12 10 -12C16.0751 -12 21.5751 -9.5376 25.5564 -5.55638C29.5376 -1.57516 32 3.92484 32 9.99997Z" fill="white" fill-opacity="0.1"/>
<g clip-path="url(#clip1)">
<path d="M19.9951 20V19.9992H20.0001V12.6642C20.0001 9.07587 19.2276 6.31171 15.0326 6.31171C13.0159 6.31171 11.6626 7.41837 11.1101 8.46754H11.0517V6.64671H7.07422V19.9992H11.2159V13.3875C11.2159 11.6467 11.5459 9.96337 13.7017 9.96337C15.8259 9.96337 15.8576 11.95 15.8576 13.4992V20H19.9951Z" fill="white"/>
<path d="M0.330078 6.64746H4.47675V20H0.330078V6.64746Z" fill="white"/>
<path d="M2.40167 0C1.07583 0 0 1.07583 0 2.40167C0 3.7275 1.07583 4.82583 2.40167 4.82583C3.7275 4.82583 4.80333 3.7275 4.80333 2.40167C4.8025 1.07583 3.72667 0 2.40167 0V0Z" fill="white"/>
</g>
</g>
<defs>
<clipPath id="clip0">
<rect width="1600" height="2924" fill="white" transform="translate(-689 -2791)"/>
</clipPath>
<clipPath id="clip1">
<rect width="20" height="20" fill="white"/>
</clipPath>
</defs>
</svg>
